<?xml version="1.0" encoding="utf-8"?>
<!-- Svg Vector Icons : http://www.onlinewebfonts.com/icon -->
<!DOCTYPE svg PUBLIC "-//W3C//DTD SVG 1.1//EN" "http://www.w3.org/Graphics/SVG/1.1/DTD/svg11.dtd">
<svg version="1.1" xmlns="http://www.w3.org/2000/svg" xmlns:xlink="http://www.w3.org/1999/xlink" x="0px" y="0px" viewBox="0 0 1000 1000" enable-background="new 0 0 1000 1000" xml:space="preserve">
<metadata> Svg Vector Icons : http://www.onlinewebfonts.com/icon </metadata>
<g><path d="M553.5,454.1c-0.1,1.6-0.6,3-1,4.4c2.9-1.2,6.4-2.2,11.3-2.8c-1.2-6.1-5.1-14.3-14.5-18C552.8,441.8,554.6,447.8,553.5,454.1z"/><path d="M522.1,449.7c0.8-5.6,3.4-10.3,7-13.3c-13,1.9-26.7,8.1-28.6,18.2c-1.9,9.5,13.4,15.3,27.7,13.4C523.6,464.1,521,457.1,522.1,449.7z"/><path d="M556.5,433c2.3,1.2,4.3,2.7,6.2,4.5C560.7,435.4,558.7,434.1,556.5,433z"/><path d="M990,498.4c0-2.5-0.1-5.1-0.1-7.5c-0.1-6-0.5-11.9-0.8-17.9c-0.3-4.7-0.8-9.4-1-14c-0.1-1.1-0.2-2.1-0.3-3.2C968,240.1,808.3,64.5,600.3,21.1c-32.3-6.8-66-10.5-100.4-10.5c-270.1,0-490,219.8-490,490c0,5,0.1,9.9,0.3,14.7c0,1.7,0.1,3.4,0.2,5.1c0.1,3.1,0.3,6.3,0.5,9.5c0.1,1.9,0.2,4.1,0.4,6.2c0.3,2.7,0.4,5.4,0.6,8.1c0.2,2.3,0.5,4.6,0.7,6.9c0.3,2.3,0.5,4.7,0.8,7.1c0.3,2.5,0.6,5,1,7.6c0.3,1.9,0.5,4,0.9,6c0.3,2.9,0.6,5.6,1.1,8.5c0.2,1.4,0.5,2.7,0.7,4.1c9,52.7,26.6,102.6,51.2,148.1c0.1,0,0.1,0.1,0.2,0.1c1.5,2.5,2.8,5.2,4.3,7.7c17.7,29.9,45.8,60.5,94.6,53.9c60.9-9.2,118.4-76,102.6-158.5l0,0c-2.3-46.8-19.2-103.8,5.9-169c6.9-18,27.3-14.9,21.6,5.6c-6.1,22.1-14.2,59-6,86.6c9.8,33,22.4,24.1,26,10.1c3.7-14-11.7-36.1-2.5-82.8c4.4-22.3,40.4-57.3,67.4,3c12.9,28.9,37.7,71.3,67.9,76.7c37.3,6.8,98-20.8,143.2-2.1c55.7,23.2,74.1,19.6,84.3-0.6c22.9-44.8-34.4-73.4-42.3-126.8c-5.6-38.2-23.9-37.2-39.5-61.7c-15-23.4-3.2-52.5,5.7-61.3c18.6-18.4,28-5.9,43.4-10.5c22.6-6.6,25.3-71,14.5-88.4c59.3,18.8,36.4,97.4,12.9,109.1c-24.1,11.9,3.8,42.4,14.6,58.1c10.8,15.8,36.5,62.7,35.8,83.9c-0.8,20.4,20.3,20.4,42.6,39c22.1,18.6,17.5,39.4,9.9,53.3c-7.6,13.7-44.1,0.3-56.7,4.8c-12.7,4.7,3.1,14.7-29.6,25.4c-32.8,10.6-35.6,46-18.6,64.2c17.2,18.4,60.8,6.9,84.8,1.2c23.9-6.1,50.1-0.5,56.3,22.6c4.5,16.1-45.4,18.1-86.1,9.7c-28-5.8-50,19.3-85.4,19.4c-20.6,0-34.1-21.3-57.8-23.2c-23.6-1.9-27.3,19.4-8.2,21.3c19.1,1.8,31.1,1.9,36.9,3.8c9.3,3.1,16.2,6.8,4.1,12.1c-12.2,5.1-60.8,18.9-97.7,38.6c-41,22.1-110.2,106.4-127.1,122.8c-22.3,21.4-36,16.2-43.9,3.4c-14.4-23,23-101.5,26-148.3c2.9-47.1-27.1-168.6-24.2-184.4c3.2-15.6,8-6.8,14.6-6.9c6.6-0.5,4.5-22.9-10.3-39.8c-14.5-17.1-29.9,1.6-16.6,78.9c5.6,32.5,20.6,135.2,9.9,183.9c-3.5,16-11.6,9.2-18.1-3.8c-6.6-12.8-7.8-29-15.1-42.5c-7.2-13.3-21,7.3-9.5,24.2c11.3,17,19.5,68.2,6.4,123.1c-13.1,54.9,27.5,85,73.6,65c49.5-21.3,97.5-130.7,132-155.2C565,743,615,747.8,667.5,730.7c28-9.2,28.6-31.8,79.1-19.8c70.7,16.9,104.4-63.9,110.8-81.5c6.3-17.4-0.6-38.2-13.2-61c-12.5-22.8-89.2-90.6-102.3-103.3c-13-12.6,7.3-25.9,9.5-36c2.1-10.2-6.2-18.2-20.8-23.2c-9.3-3.1-16.9-1.8-19.5-9.9c-2.5-8.2-9.2-22.1-23.6-40.1c77.6-144.4-37.3-174-59.8-159.2c15.3-0.6,52.5,98.5-23.1,87.8c-75.9-10.6-60.2,2.2-120-2.5c-59.9-4.7-80.9-51.9-73.7-89.8c-6.2,1-19.3,3.3-33.2,12c-50,31.2-19,107-12.8,121.7c-24.3,6.4-108.6-18.7-126.8-20.8c-18.2-2.1-18,9.9-13.3,17.9c4.6,7.9,26.3,45.6,34.1,57.5c7.9,11.9,9.3,19.6-17.3,34.1c-19,10.5-55.5,17.5-94.4,8.4c-31.8-9.3-33.6-29-22.5-59.6c1.6-3.8,3-7.7,4.5-11.4c0.1,0,0.1-0.1,0.1-0.1C192.5,202.1,340.9,96.9,513.3,96.9c108,0,206.6,41.3,280.8,108.9c53,51.5,94.2,116.7,117.2,192.4c10.9,36,17.1,72.3,19,108.2c0.1,2.6,0.4,5.2,0.4,7.8c0-0.3,0-0.6,0.1-1c7.3,200.1-119.8,388.1-320.4,449c-56.5,17.3-113.8,22.7-169.2,18H441h-0.2c-0.3,0-0.8,0.3-1.2,0.4c-0.1,0-0.2,0-0.3,0.1l-0.1,0.1l0,0c-0.5,0.4-1,1.3-1,2c0,1.2,1,2.1,2.3,2.4l0,0c45.8,6,93,5.6,140.8-2.3c57.3-9.5,110.7-28.5,158.6-55.3c2-1.2,4.1-2.4,6.2-3.7c4-2.1,7.7-4.4,11.7-6.8c4.3-2.8,8.8-5.6,13.2-8.5c1.5-0.9,3-1.9,4.3-2.8c124.6-84.5,205.6-223.6,213.8-377.6c0.1-1.2,0.1-2.1,0.2-3.3c0.3-5.6,0.5-11.2,0.5-16.9c0.1-2.5,0.2-5,0.2-7.5C990,499.9,990,499.2,990,498.4z M749.8,622.8c-13.1,6.1-47.7,2.1-53.9-3.7c-2.2-1.9-0.8-6.5,2-7.3c5.2-1.5,12.7,1.5,16.9,2.1c7.7,0.8,16.9-1.3,12.9-10.6C725.6,598.1,770.8,612.7,749.8,622.8z M812.9,625.2c1.4-2.9,7.7-4,10.3-6.2c2-1.8,0-4.7,2.7-5.7c3.8-1.3,6.7,1.5,8.2,4.3c3.4,6.5-4.2,12.1-8.9,13.8c-3.1,1.2-6.9-0.3-9.6-1.5C813.1,628.8,811.3,627.8,812.9,625.2z M511.7,431.7c5.7-1.9,13.3-3.4,21.2-3.6c-6.8-3-16.6-9.6-33.8-7c13-10.9,44.7-20.5,73.2,26c28.4,46.6-10.9,60.6-14.9,52.8c-3.5-7,15.4-20.4,13.8-41.8c-20.8,2.8-18.3,11.9-36.9,15.5c-29.2,5.6-48.4-19.3-66.2-23.2C486,447.3,485.8,440.4,511.7,431.7z M394.8,206.7c-0.7,53.4,16.4,59.5,37.6,84.1c2.7,6.3,0.8,13.2-12.3,9.2c-17.3-5.5-16-9-29.1-22.4c5.3,17.6,8.5,18.4,20.9,33.3c13.5,16.5,1.4,31-10.5,20.6c-10.5-8.6-21.2-20.8-29.1-35.4C360.8,275.6,354.1,222.1,394.8,206.7z"/></g>
</svg>